<svg width="1024" height="600" class="circuit_editor" version="1.1" xmlns="http://www.w3.org/2000/svg"><g class="zoom_area" pointer-events="all"><rect width="100%" height="100%" fill="white"></rect></g><g pointer-events="all" class="main" transform="translate(1.5610774838584263,12.424698099204761) scale(0.975355461527642)"><g class="connections"><g class="connection" pointer-events="stroke" style="cursor: crosshair;"><path class="invis" stroke="#3366AA" stroke-width="20" opacity="0" fill="none" d="M 170.66666666666666 30 C 170.66666666666666 170 -30.02599334716797 317.5027313232422 109.97400665283203 317.5027313232422"></path><path class="vis" stroke="#3366AA" stroke-width="4" fill="none" d="M 170.66666666666666 30 C 170.66666666666666 170 -30.02599334716797 317.5027313232422 109.97400665283203 317.5027313232422"></path></g><g class="connection" pointer-events="stroke" style="cursor: crosshair;"><path class="invis" stroke="#3366AA" stroke-width="20" opacity="0" fill="none" d="M 341.3333333333333 30 C 341.3333333333333 170 189.97400665283197 97.50273132324219 189.974006652832 237.5027313232422"></path><path class="vis" stroke="#3366AA" stroke-width="4" fill="none" d="M 341.3333333333333 30 C 341.3333333333333 170 189.97400665283197 97.50273132324219 189.974006652832 237.5027313232422"></path></g><g class="connection" pointer-events="stroke" style="cursor: crosshair;"><path class="invis" stroke="#3366AA" stroke-width="20" opacity="0" fill="none" d="M 269.97400665283203 317.5027313232422 C 409.97400665283203 317.50273132324213 70 120.00000000000001 210 120"></path><path class="vis" stroke="#3366AA" stroke-width="4" fill="none" d="M 269.97400665283203 317.5027313232422 C 409.97400665283203 317.50273132324213 70 120.00000000000001 210 120"></path></g><g class="connection" pointer-events="stroke" style="cursor: crosshair;"><path class="invis" stroke="#3366AA" stroke-width="20" opacity="0" fill="none" d="M 189.97400665283206 397.5027313232422 C 189.97400665283212 537.5027313232422 170 440 310 440"></path><path class="vis" stroke="#3366AA" stroke-width="4" fill="none" d="M 189.97400665283206 397.5027313232422 C 189.97400665283212 537.5027313232422 170 440 310 440"></path></g><g class="connection" pointer-events="stroke" style="cursor: crosshair;"><path class="invis" stroke="#3366AA" stroke-width="20" opacity="0" fill="none" d="M 285 163.30127018922192 C 355.00000000000006 284.5448267190433 360 250 360 390"></path><path class="vis" stroke="#3366AA" stroke-width="4" fill="none" d="M 285 163.30127018922192 C 355.00000000000006 284.5448267190433 360 250 360 390"></path></g><g class="connection" pointer-events="stroke" style="cursor: crosshair;"><path class="invis" stroke="#3366AA" stroke-width="20" opacity="0" fill="none" d="M 410 440 C 550 439.99999999999994 682.6666666666666 170 682.6666666666666 30"></path><path class="vis" stroke="#3366AA" stroke-width="4" fill="none" d="M 410 440 C 550 439.99999999999994 682.6666666666666 170 682.6666666666666 30"></path></g><g class="connection" pointer-events="stroke" style="cursor: crosshair;"><path class="invis" stroke="#3366AA" stroke-width="20" opacity="0" fill="none" d="M 360 490 C 360.00000000000006 630 853.3333333333333 170 853.3333333333333 30"></path><path class="vis" stroke="#3366AA" stroke-width="4" fill="none" d="M 360 490 C 360.00000000000006 630 853.3333333333333 170 853.3333333333333 30"></path></g><g class="connection" pointer-events="stroke" style="cursor: crosshair;"><path class="invis" stroke="purple" stroke-width="20" opacity="0" fill="none" d="M 512 30 C 512 170 354.99999999999983 -44.54482671904343 284.99999999999994 76.69872981077805"></path><path class="vis" stroke="purple" stroke-width="4" fill="none" d="M 512 30 C 512 170 354.99999999999983 -44.54482671904343 284.99999999999994 76.69872981077805"></path></g></g><g class="ports"><rect width="921.6" x="51.2" height="30" class="dock" rx="10" ry="10" fill="#3366AA" opacity="0.4" stroke="none"></rect><g class="port_marker" pointer-events="painted" transform="translate(170.66666666666666, 30)" style="cursor: pointer;"><path class="port_marker_invis" d="M -18 18 L -18 -18 L 18 0 L -18 18" fill="#3366AA" opacity="0" stroke="none" transform="rotate(450)"></path><path class="port_marker" d="M -12 12 L -12 -12 L 12 0 L -12 12" fill="#3366AA" stroke="none" transform="rotate(450)"></path><text class="port_label" x="8" y="18" text-anchor="left" fill="black" font-face="sans serif" font-size="12">In1</text></g><g class="port_marker" pointer-events="painted" transform="translate(341.3333333333333, 30)" style="cursor: pointer;"><path class="port_marker_invis" d="M -18 18 L -18 -18 L 18 0 L -18 18" fill="#3366AA" opacity="0" stroke="none" transform="rotate(450)"></path><path class="port_marker" d="M -12 12 L -12 -12 L 12 0 L -12 12" fill="#3366AA" stroke="none" transform="rotate(450)"></path><text class="port_label" x="8" y="18" text-anchor="left" fill="black" font-face="sans serif" font-size="12">In2</text></g><g class="port_marker" pointer-events="painted" transform="translate(512, 30)" style="cursor: pointer;"><circle class="port_marker_invis" cx="0" cy="0" r="18" fill="purple" opacity="0" stroke="none"></circle><circle class="port_marker" cx="0" cy="0" r="12" fill="purple" stroke="none"></circle><text class="port_label" x="8" y="18" text-anchor="left" fill="black" font-face="sans serif" font-size="12">Control</text></g><g class="port_marker" pointer-events="painted" transform="translate(682.6666666666666, 30)" style="cursor: pointer;"><path class="port_marker_invis" d="M -18 18 L -18 -18 L 18 0 L -18 18" fill="#3366AA" opacity="0" stroke="none" transform="rotate(270)"></path><path class="port_marker" d="M -12 12 L -12 -12 L 12 0 L -12 12" fill="#3366AA" stroke="none" transform="rotate(270)"></path><text class="port_label" x="8" y="18" text-anchor="left" fill="black" font-face="sans serif" font-size="12">Out1</text></g><g class="port_marker" pointer-events="painted" transform="translate(853.3333333333333, 30)" style="cursor: pointer;"><path class="port_marker_invis" d="M -18 18 L -18 -18 L 18 0 L -18 18" fill="#3366AA" opacity="0" stroke="none" transform="rotate(270)"></path><path class="port_marker" d="M -12 12 L -12 -12 L 12 0 L -12 12" fill="#3366AA" stroke="none" transform="rotate(270)"></path><text class="port_label" x="8" y="18" text-anchor="left" fill="black" font-face="sans serif" font-size="12">Out2</text></g></g><g class="components"><g class="component" pointer-events="painted" transform="translate(189.97400665283203, 317.5027313232422)" style="cursor: move;"><g class="component_body"><circle class="outer" cx="0" cy="0" r="80" fill="red" opacity=".4" stroke="none"></circle><circle class="inner" cx="0" cy="0" r="40" fill="red" stroke="none"></circle><title>ct</title><text class="component_label" x="0" y="0" text-anchor="middle" fill="white" font-face="sans serif" font-size="14">b1</text></g><g class="component_ports"><g class="port_marker" pointer-events="painted" transform="translate(-80, 9.797174393178826e-15)" style="cursor: pointer;"><path class="port_marker_invis" d="M -18 18 L -18 -18 L 18 0 L -18 18" fill="#3366AA" opacity="0" stroke="none" transform="rotate(360)"></path><path class="port_marker" d="M -12 12 L -12 -12 L 12 0 L -12 12" fill="#3366AA" stroke="none" transform="rotate(360)"></path><text class="port_label" x="8" y="18" text-anchor="left" fill="black" font-face="sans serif" font-size="12">In1</text></g><g class="port_marker" pointer-events="painted" transform="translate(-1.4695761589768237e-14, -80)" style="cursor: pointer;"><path class="port_marker_invis" d="M -18 18 L -18 -18 L 18 0 L -18 18" fill="#3366AA" opacity="0" stroke="none" transform="rotate(450)"></path><path class="port_marker" d="M -12 12 L -12 -12 L 12 0 L -12 12" fill="#3366AA" stroke="none" transform="rotate(450)"></path><text class="port_label" x="8" y="18" text-anchor="left" fill="black" font-face="sans serif" font-size="12">In2</text></g><g class="port_marker" pointer-events="painted" transform="translate(80, -1.9594348786357652e-14)" style="cursor: pointer;"><path class="port_marker_invis" d="M -18 18 L -18 -18 L 18 0 L -18 18" fill="#3366AA" opacity="0" stroke="none" transform="rotate(360)"></path><path class="port_marker" d="M -12 12 L -12 -12 L 12 0 L -12 12" fill="#3366AA" stroke="none" transform="rotate(360)"></path><text class="port_label" x="8" y="18" text-anchor="left" fill="black" font-face="sans serif" font-size="12">Out1</text></g><g class="port_marker" pointer-events="painted" transform="translate(2.4492935982947064e-14, 80)" style="cursor: pointer;"><path class="port_marker_invis" d="M -18 18 L -18 -18 L 18 0 L -18 18" fill="red" opacity="0" stroke="none" transform="rotate(450)"></path><path class="port_marker" d="M -12 12 L -12 -12 L 12 0 L -12 12" fill="#3366AA" stroke="none" transform="rotate(450)"></path><text class="port_label" x="8" y="18" text-anchor="left" fill="black" font-face="sans serif" font-size="12">Out2</text></g></g></g><g class="component" pointer-events="painted" transform="translate(360, 440)" style="cursor: move;"><g class="component_body"><circle class="outer" cx="0" cy="0" r="50" fill="#3366AA" opacity=".4" stroke="none"></circle><circle class="inner" cx="0" cy="0" r="25" fill="#3366AA" stroke="none"></circle><title>ct</title><text class="component_label" x="0" y="0" text-anchor="middle" fill="white" font-face="sans serif" font-size="14">b2</text></g><g class="component_ports"><g class="port_marker" pointer-events="painted" transform="translate(-50, 6.123233995736766e-15)" style="cursor: pointer;"><path class="port_marker_invis" d="M -18 18 L -18 -18 L 18 0 L -18 18" fill="#3366AA" opacity="0" stroke="none" transform="rotate(360)"></path><path class="port_marker" d="M -12 12 L -12 -12 L 12 0 L -12 12" fill="#3366AA" stroke="none" transform="rotate(360)"></path><text class="port_label" x="8" y="18" text-anchor="left" fill="black" font-face="sans serif" font-size="12">In1</text></g><g class="port_marker" pointer-events="painted" transform="translate(-9.184850993605149e-15, -50)" style="cursor: pointer;"><path class="port_marker_invis" d="M -18 18 L -18 -18 L 18 0 L -18 18" fill="#3366AA" opacity="0" stroke="none" transform="rotate(450)"></path><path class="port_marker" d="M -12 12 L -12 -12 L 12 0 L -12 12" fill="#3366AA" stroke="none" transform="rotate(450)"></path><text class="port_label" x="8" y="18" text-anchor="left" fill="black" font-face="sans serif" font-size="12">In2</text></g><g class="port_marker" pointer-events="painted" transform="translate(50, -1.2246467991473532e-14)" style="cursor: pointer;"><path class="port_marker_invis" d="M -18 18 L -18 -18 L 18 0 L -18 18" fill="#3366AA" opacity="0" stroke="none" transform="rotate(360)"></path><path class="port_marker" d="M -12 12 L -12 -12 L 12 0 L -12 12" fill="#3366AA" stroke="none" transform="rotate(360)"></path><text class="port_label" x="8" y="18" text-anchor="left" fill="black" font-face="sans serif" font-size="12">Out1</text></g><g class="port_marker" pointer-events="painted" transform="translate(1.5308084989341916e-14, 50)" style="cursor: pointer;"><path class="port_marker_invis" d="M -18 18 L -18 -18 L 18 0 L -18 18" fill="#3366AA" opacity="0" stroke="none" transform="rotate(450)"></path><path class="port_marker" d="M -12 12 L -12 -12 L 12 0 L -12 12" fill="#3366AA" stroke="none" transform="rotate(450)"></path><text class="port_label" x="8" y="18" text-anchor="left" fill="black" font-face="sans serif" font-size="12">Out2</text></g></g></g><g class="component" pointer-events="painted" transform="translate(260, 120)" style="cursor: move;"><g class="component_body"><circle class="outer" cx="0" cy="0" r="50" fill="#3366AA" opacity=".4" stroke="none"></circle><circle class="inner" cx="0" cy="0" r="25" fill="#3366AA" stroke="none"></circle><title>ct</title><text class="component_label" x="0" y="0" text-anchor="middle" fill="white" font-face="sans serif" font-size="14">phi</text></g><g class="component_ports"><g class="port_marker" pointer-events="painted" transform="translate(-50, 6.123233995736766e-15)" style="cursor: pointer;"><path class="port_marker_invis" d="M -18 18 L -18 -18 L 18 0 L -18 18" fill="#3366AA" opacity="0" stroke="none" transform="rotate(360)"></path><path class="port_marker" d="M -12 12 L -12 -12 L 12 0 L -12 12" fill="#3366AA" stroke="none" transform="rotate(360)"></path><text class="port_label" x="8" y="18" text-anchor="left" fill="black" font-face="sans serif" font-size="12">In1</text></g><g class="port_marker" pointer-events="painted" transform="translate(24.999999999999964, -43.30127018922195)" style="cursor: pointer;"><circle class="port_marker_invis" cx="0" cy="0" r="18" fill="purple" opacity="0" stroke="none"></circle><circle class="port_marker" cx="0" cy="0" r="12" fill="purple" stroke="none"></circle><text class="port_label" x="8" y="18" text-anchor="left" fill="black" font-face="sans serif" font-size="12">Control</text></g><g class="port_marker" pointer-events="painted" transform="translate(25.00000000000003, 43.30127018922192)" style="cursor: pointer;"><path class="port_marker_invis" d="M -18 18 L -18 -18 L 18 0 L -18 18" fill="#3366AA" opacity="0" stroke="none" transform="rotate(419.99999999999994)"></path><path class="port_marker" d="M -12 12 L -12 -12 L 12 0 L -12 12" fill="#3366AA" stroke="none" transform="rotate(419.99999999999994)"></path><text class="port_label" x="8" y="18" text-anchor="left" fill="black" font-face="sans serif" font-size="12">Out1</text></g></g></g></g></g></svg>