<svg class="circuit_editor" height="600" version="1.1" width="1024" xmlns="http://www.w3.org/2000/svg"><g class="zoom_area" pointer-events="all"><rect fill="white" height="100%" width="100%"/></g><g class="main" pointer-events="all" transform="translate(1.5610774838584263,12.424698099204761) scale(0.975355461527642)"><g class="connections"><g class="connection" pointer-events="stroke" style="cursor: crosshair;"><path class="invis" d="M 170.66666666666666 30 C 170.66666666666666 170 -30.02599334716797 317.5027313232422 109.97400665283203 317.5027313232422" fill="none" opacity="0" stroke="#3366AA" stroke-width="20"/><path class="vis" d="M 170.66666666666666 30 C 170.66666666666666 170 -30.02599334716797 317.5027313232422 109.97400665283203 317.5027313232422" fill="none" stroke="#3366AA" stroke-width="4"/></g><g class="connection" pointer-events="stroke" style="cursor: crosshair;"><path class="invis" d="M 341.3333333333333 30 C 341.3333333333333 170 189.97400665283197 97.50273132324219 189.974006652832 237.5027313232422" fill="none" opacity="0" stroke="#3366AA" stroke-width="20"/><path class="vis" d="M 341.3333333333333 30 C 341.3333333333333 170 189.97400665283197 97.50273132324219 189.974006652832 237.5027313232422" fill="none" stroke="#3366AA" stroke-width="4"/></g><g class="connection" pointer-events="stroke" style="cursor: crosshair;"><path class="invis" d="M 269.97400665283203 317.5027313232422 C 409.97400665283203 317.50273132324213 70 120.00000000000001 210 120" fill="none" opacity="0" stroke="#3366AA" stroke-width="20"/><path class="vis" d="M 269.97400665283203 317.5027313232422 C 409.97400665283203 317.50273132324213 70 120.00000000000001 210 120" fill="none" stroke="#3366AA" stroke-width="4"/></g><g class="connection" pointer-events="stroke" style="cursor: crosshair;"><path class="invis" d="M 189.97400665283206 397.5027313232422 C 189.97400665283212 537.5027313232422 170 440 310 440" fill="none" opacity="0" stroke="#3366AA" stroke-width="20"/><path class="vis" d="M 189.97400665283206 397.5027313232422 C 189.97400665283212 537.5027313232422 170 440 310 440" fill="none" stroke="#3366AA" stroke-width="4"/></g><g class="connection" pointer-events="stroke" style="cursor: crosshair;"><path class="invis" d="M 285 163.30127018922192 C 355.00000000000006 284.5448267190433 360 250 360 390" fill="none" opacity="0" stroke="#3366AA" stroke-width="20"/><path class="vis" d="M 285 163.30127018922192 C 355.00000000000006 284.5448267190433 360 250 360 390" fill="none" stroke="#3366AA" stroke-width="4"/></g><g class="connection" pointer-events="stroke" style="cursor: crosshair;"><path class="invis" d="M 410 440 C 550 439.99999999999994 682.6666666666666 170 682.6666666666666 30" fill="none" opacity="0" stroke="#3366AA" stroke-width="20"/><path class="vis" d="M 410 440 C 550 439.99999999999994 682.6666666666666 170 682.6666666666666 30" fill="none" stroke="#3366AA" stroke-width="4"/></g><g class="connection" pointer-events="stroke" style="cursor: crosshair;"><path class="invis" d="M 360 490 C 360.00000000000006 630 853.3333333333333 170 853.3333333333333 30" fill="none" opacity="0" stroke="#3366AA" stroke-width="20"/><path class="vis" d="M 360 490 C 360.00000000000006 630 853.3333333333333 170 853.3333333333333 30" fill="none" stroke="#3366AA" stroke-width="4"/></g><g class="connection" pointer-events="stroke" style="cursor: crosshair;"><path class="invis" d="M 512 30 C 512 170 354.99999999999983 -44.54482671904343 284.99999999999994 76.69872981077805" fill="none" opacity="0" stroke="purple" stroke-width="20"/><path class="vis" d="M 512 30 C 512 170 354.99999999999983 -44.54482671904343 284.99999999999994 76.69872981077805" fill="none" stroke="purple" stroke-width="4"/></g></g><g class="ports"><rect class="dock" fill="#3366AA" height="30" opacity="0.4" rx="10" ry="10" stroke="none" width="921.6" x="51.2"/><g class="port_marker" pointer-events="painted" style="cursor: pointer;" transform="translate(170.66666666666666, 30)"><path class="port_marker_invis" d="M -18 18 L -18 -18 L 18 0 L -18 18" fill="#3366AA" opacity="0" stroke="none" transform="rotate(450)"/><path class="port_marker" d="M -12 12 L -12 -12 L 12 0 L -12 12" fill="#3366AA" stroke="none" transform="rotate(450)"/><text class="port_label" fill="black" font-face="sans serif" font-size="12" text-anchor="left" x="8" y="18">In1</text></g><g class="port_marker" pointer-events="painted" style="cursor: pointer;" transform="translate(341.3333333333333, 30)"><path class="port_marker_invis" d="M -18 18 L -18 -18 L 18 0 L -18 18" fill="#3366AA" opacity="0" stroke="none" transform="rotate(450)"/><path class="port_marker" d="M -12 12 L -12 -12 L 12 0 L -12 12" fill="#3366AA" stroke="none" transform="rotate(450)"/><text class="port_label" fill="black" font-face="sans serif" font-size="12" text-anchor="left" x="8" y="18">In2</text></g><g class="port_marker" pointer-events="painted" style="cursor: pointer;" transform="translate(512, 30)"><circle class="port_marker_invis" cx="0" cy="0" fill="purple" opacity="0" r="18" stroke="none"/><circle class="port_marker" cx="0" cy="0" fill="purple" r="12" stroke="none"/><text class="port_label" fill="black" font-face="sans serif" font-size="12" text-anchor="left" x="8" y="18">Control</text></g><g class="port_marker" pointer-events="painted" style="cursor: pointer;" transform="translate(682.6666666666666, 30)"><path class="port_marker_invis" d="M -18 18 L -18 -18 L 18 0 L -18 18" fill="#3366AA" opacity="0" stroke="none" transform="rotate(270)"/><path class="port_marker" d="M -12 12 L -12 -12 L 12 0 L -12 12" fill="#3366AA" stroke="none" transform="rotate(270)"/><text class="port_label" fill="black" font-face="sans serif" font-size="12" text-anchor="left" x="8" y="18">Out1</text></g><g class="port_marker" pointer-events="painted" style="cursor: pointer;" transform="translate(853.3333333333333, 30)"><path class="port_marker_invis" d="M -18 18 L -18 -18 L 18 0 L -18 18" fill="#3366AA" opacity="0" stroke="none" transform="rotate(270)"/><path class="port_marker" d="M -12 12 L -12 -12 L 12 0 L -12 12" fill="#3366AA" stroke="none" transform="rotate(270)"/><text class="port_label" fill="black" font-face="sans serif" font-size="12" text-anchor="left" x="8" y="18">Out2</text></g></g><g class="components"><g class="component" pointer-events="painted" style="cursor: move;" transform="translate(189.97400665283203, 317.5027313232422)"><g class="component_body"><circle class="outer" cx="0" cy="0" fill="red" opacity=".4" r="80" stroke="none"/><circle class="inner" cx="0" cy="0" fill="red" r="40" stroke="none"/><title>ct</title><text class="component_label" fill="white" font-face="sans serif" font-size="14" text-anchor="middle" x="0" y="0">b1</text></g><g class="component_ports"><g class="port_marker" pointer-events="painted" style="cursor: pointer;" transform="translate(-80, 9.797174393178826e-15)"><path class="port_marker_invis" d="M -18 18 L -18 -18 L 18 0 L -18 18" fill="#3366AA" opacity="0" stroke="none" transform="rotate(360)"/><path class="port_marker" d="M -12 12 L -12 -12 L 12 0 L -12 12" fill="#3366AA" stroke="none" transform="rotate(360)"/><text class="port_label" fill="black" font-face="sans serif" font-size="12" text-anchor="left" x="8" y="18">In1</text></g><g class="port_marker" pointer-events="painted" style="cursor: pointer;" transform="translate(-1.4695761589768237e-14, -80)"><path class="port_marker_invis" d="M -18 18 L -18 -18 L 18 0 L -18 18" fill="#3366AA" opacity="0" stroke="none" transform="rotate(450)"/><path class="port_marker" d="M -12 12 L -12 -12 L 12 0 L -12 12" fill="#3366AA" stroke="none" transform="rotate(450)"/><text class="port_label" fill="black" font-face="sans serif" font-size="12" text-anchor="left" x="8" y="18">In2</text></g><g class="port_marker" pointer-events="painted" style="cursor: pointer;" transform="translate(80, -1.9594348786357652e-14)"><path class="port_marker_invis" d="M -18 18 L -18 -18 L 18 0 L -18 18" fill="#3366AA" opacity="0" stroke="none" transform="rotate(360)"/><path class="port_marker" d="M -12 12 L -12 -12 L 12 0 L -12 12" fill="#3366AA" stroke="none" transform="rotate(360)"/><text class="port_label" fill="black" font-face="sans serif" font-size="12" text-anchor="left" x="8" y="18">Out1</text></g><g class="port_marker" pointer-events="painted" style="cursor: pointer;" transform="translate(2.4492935982947064e-14, 80)"><path class="port_marker_invis" d="M -18 18 L -18 -18 L 18 0 L -18 18" fill="red" opacity="0" stroke="none" transform="rotate(450)"/><path class="port_marker" d="M -12 12 L -12 -12 L 12 0 L -12 12" fill="#3366AA" stroke="none" transform="rotate(450)"/><text class="port_label" fill="black" font-face="sans serif" font-size="12" text-anchor="left" x="8" y="18">Out2</text></g></g></g><g class="component" pointer-events="painted" style="cursor: move;" transform="translate(360, 440)"><g class="component_body"><circle class="outer" cx="0" cy="0" fill="#3366AA" opacity=".4" r="50" stroke="none"/><circle class="inner" cx="0" cy="0" fill="#3366AA" r="25" stroke="none"/><title>ct</title><text class="component_label" fill="white" font-face="sans serif" font-size="14" text-anchor="middle" x="0" y="0">b2</text></g><g class="component_ports"><g class="port_marker" pointer-events="painted" style="cursor: pointer;" transform="translate(-50, 6.123233995736766e-15)"><path class="port_marker_invis" d="M -18 18 L -18 -18 L 18 0 L -18 18" fill="#3366AA" opacity="0" stroke="none" transform="rotate(360)"/><path class="port_marker" d="M -12 12 L -12 -12 L 12 0 L -12 12" fill="#3366AA" stroke="none" transform="rotate(360)"/><text class="port_label" fill="black" font-face="sans serif" font-size="12" text-anchor="left" x="8" y="18">In1</text></g><g class="port_marker" pointer-events="painted" style="cursor: pointer;" transform="translate(-9.184850993605149e-15, -50)"><path class="port_marker_invis" d="M -18 18 L -18 -18 L 18 0 L -18 18" fill="#3366AA" opacity="0" stroke="none" transform="rotate(450)"/><path class="port_marker" d="M -12 12 L -12 -12 L 12 0 L -12 12" fill="#3366AA" stroke="none" transform="rotate(450)"/><text class="port_label" fill="black" font-face="sans serif" font-size="12" text-anchor="left" x="8" y="18">In2</text></g><g class="port_marker" pointer-events="painted" style="cursor: pointer;" transform="translate(50, -1.2246467991473532e-14)"><path class="port_marker_invis" d="M -18 18 L -18 -18 L 18 0 L -18 18" fill="#3366AA" opacity="0" stroke="none" transform="rotate(360)"/><path class="port_marker" d="M -12 12 L -12 -12 L 12 0 L -12 12" fill="#3366AA" stroke="none" transform="rotate(360)"/><text class="port_label" fill="black" font-face="sans serif" font-size="12" text-anchor="left" x="8" y="18">Out1</text></g><g class="port_marker" pointer-events="painted" style="cursor: pointer;" transform="translate(1.5308084989341916e-14, 50)"><path class="port_marker_invis" d="M -18 18 L -18 -18 L 18 0 L -18 18" fill="#3366AA" opacity="0" stroke="none" transform="rotate(450)"/><path class="port_marker" d="M -12 12 L -12 -12 L 12 0 L -12 12" fill="#3366AA" stroke="none" transform="rotate(450)"/><text class="port_label" fill="black" font-face="sans serif" font-size="12" text-anchor="left" x="8" y="18">Out2</text></g></g></g><g class="component" pointer-events="painted" style="cursor: move;" transform="translate(260, 120)"><g class="component_body"><circle class="outer" cx="0" cy="0" fill="#3366AA" opacity=".4" r="50" stroke="none"/><circle class="inner" cx="0" cy="0" fill="#3366AA" r="25" stroke="none"/><title>ct</title><text class="component_label" fill="white" font-face="sans serif" font-size="14" text-anchor="middle" x="0" y="0">phi</text></g><g class="component_ports"><g class="port_marker" pointer-events="painted" style="cursor: pointer;" transform="translate(-50, 6.123233995736766e-15)"><path class="port_marker_invis" d="M -18 18 L -18 -18 L 18 0 L -18 18" fill="#3366AA" opacity="0" stroke="none" transform="rotate(360)"/><path class="port_marker" d="M -12 12 L -12 -12 L 12 0 L -12 12" fill="#3366AA" stroke="none" transform="rotate(360)"/><text class="port_label" fill="black" font-face="sans serif" font-size="12" text-anchor="left" x="8" y="18">In1</text></g><g class="port_marker" pointer-events="painted" style="cursor: pointer;" transform="translate(24.999999999999964, -43.30127018922195)"><circle class="port_marker_invis" cx="0" cy="0" fill="purple" opacity="0" r="18" stroke="none"/><circle class="port_marker" cx="0" cy="0" fill="purple" r="12" stroke="none"/><text class="port_label" fill="black" font-face="sans serif" font-size="12" text-anchor="left" x="8" y="18">Control</text></g><g class="port_marker" pointer-events="painted" style="cursor: pointer;" transform="translate(25.00000000000003, 43.30127018922192)"><path class="port_marker_invis" d="M -18 18 L -18 -18 L 18 0 L -18 18" fill="#3366AA" opacity="0" stroke="none" transform="rotate(419.99999999999994)"/><path class="port_marker" d="M -12 12 L -12 -12 L 12 0 L -12 12" fill="#3366AA" stroke="none" transform="rotate(419.99999999999994)"/><text class="port_label" fill="black" font-face="sans serif" font-size="12" text-anchor="left" x="8" y="18">Out1</text></g></g></g></g></g></svg>